<?xml version="1.0" standalone="no"?>
<!DOCTYPE svg PUBLIC "-//W3C//DTD SVG 20010904//EN"
 "http://www.w3.org/TR/2001/REC-SVG-20010904/DTD/svg10.dtd">
<svg version="1.0" xmlns="http://www.w3.org/2000/svg"
 width="512.000000pt" height="512.000000pt" viewBox="0 0 512.000000 512.000000"
 preserveAspectRatio="xMidYMid meet">
<metadata>
Created by potrace 1.14, written by Peter Selinger 2001-2017
</metadata>
<g transform="translate(0.000000,512.000000) scale(0.100000,-0.100000)"
fill="#000000" stroke="none">
<path d="M2903 4620 c-29 -12 -63 -67 -63 -103 0 -47 27 -84 90 -122 33 -20
64 -44 69 -54 14 -26 -5 -51 -40 -51 -25 0 -33 6 -42 30 -9 24 -19 31 -60 40
-26 5 -50 10 -52 10 -3 0 -5 -12 -5 -27 0 -86 122 -159 221 -133 53 15 89 60
89 114 0 53 -15 74 -90 122 -63 41 -80 65 -60 89 20 24 50 17 68 -14 13 -23
27 -31 65 -39 38 -7 50 -7 54 4 7 19 -15 79 -35 97 -45 41 -152 60 -209 37z"/>
<path d="M1745 4508 c-22 -11 -41 -22 -43 -23 -2 -2 22 -53 52 -114 31 -61 54
-111 52 -111 -3 0 -62 33 -132 74 l-127 74 -44 -21 c-23 -11 -43 -25 -43 -29
0 -5 40 -89 90 -188 l90 -179 37 15 c21 9 42 19 46 24 5 4 -17 58 -48 120 -31
61 -52 110 -48 107 4 -2 65 -37 134 -76 l127 -73 41 21 c23 12 41 26 41 31 0
10 -178 370 -183 370 -1 -1 -20 -10 -42 -22z"/>
<path d="M3505 4362 c-136 -64 -168 -261 -57 -354 142 -119 345 -37 360 146
11 152 -165 273 -303 208z m178 -122 c31 -35 34 -67 11 -116 -24 -50 -59 -74
-108 -74 -90 1 -135 93 -83 171 48 73 124 81 180 19z"/>
<path d="M1095 4053 c-167 -87 -179 -292 -22 -383 46 -27 60 -31 113 -28 76 5
131 38 169 102 51 88 46 164 -17 232 -48 52 -39 55 -139 -57 l-58 -66 30 -22
31 -23 43 48 43 49 7 -36 c12 -66 -41 -129 -110 -129 -88 0 -156 111 -109 178
17 25 64 52 91 52 10 0 33 18 51 40 l33 40 -26 10 c-38 14 -95 12 -130 -7z"/>
<path d="M4035 3871 c-127 -59 -170 -192 -99 -308 41 -66 122 -109 188 -99 25
4 46 11 46 15 0 4 -14 27 -30 49 -23 33 -37 42 -59 42 -20 0 -37 9 -55 31 -48
57 -26 138 48 173 50 23 81 20 118 -13 29 -26 33 -36 33 -79 0 -41 6 -57 32
-89 l31 -38 21 45 c25 54 26 98 6 147 -51 120 -172 174 -280 124z"/>
<path d="M675 3490 c-10 -22 -16 -42 -14 -44 2 -2 85 -44 185 -94 l181 -90 21
44 22 44 -180 90 c-99 50 -184 90 -188 90 -5 0 -17 -18 -27 -40z"/>
<path d="M4340 3255 c-96 -35 -178 -65 -183 -67 -7 -3 21 -98 29 -98 3 0 313
110 381 134 17 7 -18 96 -37 95 -8 0 -94 -29 -190 -64z"/>
<path d="M2850 3274 c-92 -40 -144 -144 -120 -243 39 -163 246 -217 362 -94
101 106 63 280 -74 337 -47 20 -122 20 -168 0z"/>
<path d="M534 3045 c-42 -45 -62 -125 -45 -178 24 -72 98 -106 166 -75 14 6
44 42 67 80 44 71 69 88 93 68 29 -24 5 -90 -32 -90 -11 0 -37 -99 -29 -108
13 -12 78 12 105 38 38 39 54 89 49 156 -5 64 -32 98 -89 115 -48 15 -83 -2
-126 -61 -68 -94 -75 -101 -97 -98 -30 4 -30 59 1 73 14 6 25 24 32 52 16 61
15 63 -25 63 -29 0 -44 -7 -70 -35z"/>
<path d="M1836 3005 c-82 -29 -136 -109 -136 -201 0 -68 20 -112 70 -158 135
-122 349 -26 350 157 0 90 -41 154 -125 193 -56 27 -102 29 -159 9z"/>
<path d="M4258 2823 c6 -57 4 -54 45 -68 32 -10 32 -10 35 -87 l3 -76 -37 -14
-36 -13 7 -50 c3 -27 8 -51 9 -53 2 -1 93 36 203 83 l200 86 -5 57 c-2 31 -6
59 -7 60 -5 5 -398 122 -411 122 -8 0 -10 -16 -6 -47z m267 -127 l40 -12 -68
-27 c-37 -15 -69 -27 -72 -27 -3 0 -5 21 -5 46 l0 46 32 -8 c18 -3 51 -12 73
-18z"/>
<path d="M795 2420 l7 -80 -45 0 -44 0 -7 62 c-3 34 -8 63 -10 65 -2 3 -20 1
-39 -2 l-36 -7 6 -69 6 -69 -41 0 -40 0 -7 75 c-8 79 -8 80 -62 69 l-29 -6 13
-121 c7 -66 15 -123 18 -125 4 -5 292 22 376 35 l35 5 -12 111 c-7 62 -13 118
-13 125 -1 7 -16 12 -42 12 l-41 0 7 -80z"/>
<path d="M3234 2378 c-11 -13 -40 -56 -63 -96 -168 -289 -507 -443 -828 -376
-102 21 -164 45 -253 99 -78 46 -111 53 -155 33 -50 -23 -72 -109 -40 -156 9
-12 46 -40 83 -62 291 -173 638 -191 938 -51 204 96 362 249 463 448 40 81 40
106 -3 149 -28 28 -41 34 -78 34 -34 0 -49 -6 -64 -22z"/>
<path d="M4231 2193 c-49 -188 -49 -192 4 -196 27 -2 29 1 43 56 10 41 19 57
31 57 9 0 82 -18 163 -39 l147 -39 14 46 c7 26 12 49 11 50 -4 5 -374 102
-390 102 -7 0 -18 -17 -23 -37z"/>
<path d="M765 1932 c-132 -62 -157 -175 -78 -344 l41 -87 184 84 c100 47 184
90 185 97 2 7 -18 56 -45 108 -37 75 -56 101 -89 124 -56 39 -138 46 -198 18z
m143 -96 c29 -15 79 -93 67 -104 -4 -4 -52 -28 -108 -54 l-102 -47 -18 37
c-19 41 -17 102 5 129 16 19 86 52 111 53 10 0 30 -6 45 -14z"/>
<path d="M3700 1261 c-120 -39 -191 -146 -164 -248 8 -30 19 -29 64 7 25 20
38 38 38 55 0 54 64 104 116 91 40 -10 85 -55 97 -96 22 -73 -26 -134 -100
-129 -30 2 -47 -4 -81 -31 l-42 -33 33 -18 c46 -24 129 -24 177 0 73 38 122
113 122 188 0 44 -31 117 -63 151 -46 50 -142 81 -197 63z"/>
<path d="M3152 960 c-57 -21 -106 -41 -109 -43 -3 -3 0 -22 7 -41 l11 -35 64
23 63 23 57 -159 c32 -87 59 -158 61 -158 4 0 87 32 92 35 2 2 -136 387 -141
391 -1 1 -48 -15 -105 -36z"/>
<path d="M1937 929 c-45 -27 -60 -109 -27 -152 l20 -26 -27 -13 c-16 -7 -36
-30 -47 -51 -16 -34 -17 -42 -4 -75 8 -21 27 -44 44 -54 29 -17 225 -80 231
-75 9 9 113 381 110 391 -6 16 -188 66 -239 66 -24 0 -51 -5 -61 -11z m175
-97 c6 -6 5 -26 -1 -50 l-11 -40 -40 12 c-55 16 -74 37 -66 71 7 27 9 27 58
22 28 -4 56 -11 60 -15z m-65 -152 c29 -11 30 -12 19 -51 -9 -36 -13 -39 -36
-34 -68 17 -96 49 -70 80 15 18 45 19 87 5z"/>
<path d="M2566 837 c-69 -39 -78 -69 -74 -244 2 -84 6 -154 8 -156 3 -2 27 -2
53 1 l48 4 -7 142 -7 142 28 22 c32 25 63 28 90 8 22 -16 33 -85 34 -213 l1
-93 53 0 54 0 -4 103 c-8 210 -22 254 -93 289 -50 26 -135 23 -184 -5z"/>
</g>
</svg>
